<?xml version="1.0" encoding="utf-8"?>
<!-- Generator: Adobe Illustrator 19.0.0, SVG Export Plug-In . SVG Version: 6.00 Build 0)  -->
<svg version="1.1" id="Layer_1" xmlns="http://www.w3.org/2000/svg" xmlns:xlink="http://www.w3.org/1999/xlink" x="0px" y="0px"
	 viewBox="0 0 3000 1000" style="enable-background:new 0 0 3000 1000;" xml:space="preserve">
<style type="text/css">
	.st0{fill:#FFFFFF;}
</style>
<g>
	<g>
		<path class="st0" d="M1825.1,909c-261.8,0-523.5,0-785.4,0c0-261.7,0-523.4,0-785.3c261.7,0,523.6,0,785.4,0
			C1825.1,385.4,1825.1,647.2,1825.1,909z M1435.9,532.7c21.7-1.7,63.9-4.1,106-8.3c45.7-4.5,90.9-12.3,134.8-26.2
			c14.9-4.7,29.2-12,42.7-19.8c8.8-5.1,8.5-12.4,0.2-18.5c-7.1-5.2-15-9.8-23.2-13.1c-46-18.7-94.4-29.2-142.7-39.7
			c-3-0.6-6.4,0.6-9.6,1.4c-16,4-31.9,9.3-48.1,12.1c-41.1,7.1-82.7,8.4-124.3,4.6c-29-2.7-57.8-6.4-85.2-17.2
			c-2.7-1.1-6.2-1.5-8.9-0.8c-43,11.5-86.2,22.6-128.9,35.2c-12.2,3.6-23.9,10.3-34.7,17.3c-10.3,6.7-9.5,14,0.7,21
			c5.7,3.8,11.7,7.5,18.1,9.8c16.1,5.6,32.3,11.3,48.8,15.3C1258.5,524.2,1336.5,531.7,1435.9,532.7z M1286.5,353.1
			c83.6,14.9,165.3,23.1,247.2,0.2c0-2.6,0.2-3.9,0-5c-10.1-46.3-19.7-92.6-30.6-138.7c-3.2-13.4-9.2-26.4-15.2-38.9
			c-4.2-8.7-11.5-10.3-20-5.7c-5.5,3-10.5,7.2-15.3,11.2c-8.6,7.2-16.5,15.3-25.5,21.8c-14.7,10.6-27.3,9.9-41-1.9
			c-6.1-5.3-10.8-12.2-16.8-17.6c-5.8-5.2-11.9-10.5-18.7-14.1c-7.7-4-13.1-2.2-17.6,5.2c-4.4,7.3-9,15.1-11.1,23.3
			c-8.9,33.7-17.3,67.5-24.9,101.5C1292.5,313.3,1290.1,332.5,1286.5,353.1z M1412.8,867.8c52.3-95.1,134.2-145.5,237.7-167.6
			c-24.9-12.1-48.2-23.3-73.2-35.4c59.9-29.2,123.5-36.5,187.2-48.4c-2.8-2.2-4.7-3.9-6.7-5.3c-31.5-22.1-63.3-43.8-94.4-66.5
			c-12.1-8.8-23.4-14.5-39.1-10.8c-14.7,3.5-30,4.4-42.6,6.2c-3.7,19-6.7,36.2-10.6,53.2c-0.9,4-4.1,8.3-7.4,10.9
			c-29.8,23.4-57.6,48.7-82.1,77.6c-32.7,38.7-57.8,81.3-67.7,131.7C1410.5,830.8,1408.7,848.1,1412.8,867.8z M1403.6,799.2
			c4-14.4,7.3-28.5,11.8-42.2c2.4-7.4,0.4-11.4-5.5-15.9c-33.5-25.5-62.8-55.1-88.3-88.5c-24.9-32.5-46-67.3-62.2-105
			c-1.3-3-4.7-6.5-7.6-7c-15-2.8-30.3-4.4-45.3-7.1c-6.4-1.2-10.5,0.9-15,4.8c-20.9,18.2-42.1,36.1-63.1,54.2
			c-9.6,8.2-18.9,16.7-30.3,26.6c31.2,0.2,58.9,6.7,86.4,13.7c27.4,7.1,54.6,14.9,81.9,22.5c0.2,1.1,0.4,2.2,0.6,3.2
			c-19.3,17.2-38.5,34.3-56.7,50.5c32.6,14.2,65.2,27.7,97.2,42.7C1339.6,766.6,1371,783,1403.6,799.2z M1286.4,543.4
			c-3.1,16.9,2.4,33.2,15.2,43.9c28.2,23.4,71.6,17.5,92.2-12.6c10.9-16,33.5-15.8,44.3,0.4c1.8,2.7,3.6,5.6,5.8,8
			c17,19.2,38.6,20.7,61.8,15.6c12.6-2.8,23.6-8.4,31.4-18.9c8.5-11.4,11-24,8.2-36.1C1458.4,555.8,1372.7,554.1,1286.4,543.4z"/>
		<path d="M1435.9,532.7c-99.4-1-177.4-8.5-254.2-26.9c-16.5-4-32.7-9.7-48.8-15.3c-6.4-2.2-12.5-5.9-18.1-9.8
			c-10.3-7-11-14.3-0.7-21c10.8-7,22.5-13.7,34.7-17.3c42.7-12.5,85.9-23.7,128.9-35.2c2.7-0.7,6.2-0.3,8.9,0.8
			c27.4,10.7,56.2,14.5,85.2,17.2c41.6,3.8,83.1,2.5,124.3-4.6c16.2-2.8,32.1-8.1,48.1-12.1c3.1-0.8,6.6-2,9.6-1.4
			c48.3,10.5,96.7,21,142.7,39.7c8.2,3.3,16.1,7.8,23.2,13.1c8.3,6.1,8.6,13.4-0.2,18.5c-13.5,7.8-27.8,15.1-42.7,19.8
			c-43.8,13.9-89.1,21.7-134.8,26.2C1499.8,528.5,1457.6,531,1435.9,532.7z"/>
		<path d="M1286.5,353.1c3.5-20.6,6-39.8,10.3-58.7c7.7-34,16.1-67.8,24.9-101.5c2.2-8.2,6.7-16,11.1-23.3c4.5-7.5,9.9-9.3,17.6-5.2
			c6.8,3.6,13,8.8,18.7,14.1c6,5.5,10.7,12.4,16.8,17.6c13.7,11.8,26.4,12.5,41,1.9c9-6.6,16.9-14.7,25.5-21.8
			c4.9-4,9.8-8.2,15.3-11.2c8.5-4.6,15.8-3.1,20,5.7c6,12.5,12,25.5,15.2,38.9c10.9,46.1,20.5,92.4,30.6,138.7c0.3,1.2,0,2.5,0,5
			C1451.9,376.2,1370.1,368,1286.5,353.1z"/>
		<path d="M1412.8,867.8c-4.1-19.7-2.3-37,1.1-54.3c9.8-50.4,34.9-93.1,67.7-131.7c24.5-28.9,52.4-54.3,82.1-77.6
			c3.3-2.6,6.5-6.9,7.4-10.9c3.9-17,6.9-34.3,10.6-53.2c12.6-1.7,27.9-2.7,42.6-6.2c15.6-3.7,27,2,39.1,10.8
			c31.1,22.6,62.9,44.3,94.4,66.5c2,1.4,3.9,3.1,6.7,5.3c-63.6,11.8-127.3,19.1-187.2,48.4c25,12.1,48.3,23.4,73.2,35.4
			C1547,722.3,1465.1,772.7,1412.8,867.8z"/>
		<path d="M1403.6,799.2c-32.6-16.2-63.9-32.6-96-47.6c-32-14.9-64.7-28.4-97.2-42.7c18.1-16.2,37.4-33.3,56.7-50.5
			c-0.2-1.1-0.4-2.2-0.6-3.2c-27.3-7.5-54.5-15.4-81.9-22.5c-27.5-7.1-55.2-13.6-86.4-13.7c11.3-10,20.7-18.4,30.3-26.6
			c21-18.1,42.2-36,63.1-54.2c4.5-3.9,8.7-5.9,15-4.8c15,2.8,30.3,4.3,45.3,7.1c2.9,0.5,6.3,4.1,7.6,7c16.1,37.7,37.2,72.5,62.2,105
			c25.6,33.4,54.9,63,88.3,88.5c5.9,4.5,7.9,8.5,5.5,15.9C1410.9,770.7,1407.6,784.8,1403.6,799.2z"/>
		<path d="M1286.4,543.4c86.3,10.7,172,12.4,258.9,0.2c2.7,12.1,0.2,24.8-8.2,36.1c-7.8,10.5-18.8,16.1-31.4,18.9
			c-23.2,5.1-44.7,3.6-61.8-15.6c-2.2-2.5-4-5.3-5.8-8c-10.9-16.2-33.4-16.5-44.3-0.4c-20.6,30.1-64,36.1-92.2,12.6
			C1288.8,576.6,1283.3,560.3,1286.4,543.4z"/>
	</g>
</g>
</svg>
